<svg xmlns="http://www.w3.org/2000/svg" viewBox="0 0 1000 500"><defs><style>.a{fill:#ebe4d8;}.b{isolation:isolate;}.c{fill:#0071bc;}.d{fill:#2e3192;}.e{fill:#3fa9f5;}</style></defs><rect class="a" width="1000" height="500"/><g class="b"><polygon class="c" points="202.99 259.74 202.66 377.7 100 318.43 100.33 200.47 202.99 259.74"/><polygon class="d" points="202.99 259.74 304.98 200.47 304.65 318.43 202.66 377.7 202.99 259.74"/><polygon class="e" points="100.33 200.47 202.33 141.2 304.98 200.47 202.99 259.74 100.33 200.47"/></g><path class="d" d="M375.5,312.93A63.34,63.34,0,0,1,353.25,290a60.94,60.94,0,0,1-8.23-30.8,59.77,59.77,0,0,1,29.25-51.83,57,57,0,0,1,29.7-8A65,65,0,0,1,432.33,206a61.3,61.3,0,0,1,22.58,18q8.67,11.34,8.67,24.47l-37.37,3.34A19.87,19.87,0,0,0,419,241.52a19.08,19.08,0,0,0-11.67-3.89,22.66,22.66,0,0,0-15.91,6.56q-7,6.57-7,15a20.37,20.37,0,0,0,3.33,10.9,26.5,26.5,0,0,0,8.79,8.67,21.17,21.17,0,0,0,11.23,3.34,20.08,20.08,0,0,0,11-3.34,18.91,18.91,0,0,0,7.45-8.45l36.93,3.56q0,12.24-8.34,23.24a63.61,63.61,0,0,1-49.05,24.36A56.94,56.94,0,0,1,375.5,312.93Z"/><path class="d" d="M588.37,201.15V318.82H546.11v-10.9A38.06,38.06,0,0,1,531.87,318a47.37,47.37,0,0,1-18.68,3.67q-22.92,0-34.48-15.23t-11.12-44.6l.66-61.17H509.4l-.22,58.94q0,9.35,4.56,14.35t13,5a16.75,16.75,0,0,0,14.35-7.22q5.22-7.23,5.23-18.36v.23l.22-52.5Z"/><path class="d" d="M700.58,207.94a67.78,67.78,0,0,1,25,51.94,71.52,71.52,0,0,1-6.67,30.69,57.85,57.85,0,0,1-18,22.58,40.52,40.52,0,0,1-24.47,8.34,61.73,61.73,0,0,1-21.13-3.78A54.13,54.13,0,0,1,638,307.92v12.46H594.59V144.21l44.49-3.56-.44,68.95q15.12-11.34,38.48-10.67Q689.35,199.16,700.58,207.94Zm-26.91,72.29a25.88,25.88,0,0,0,8.67-9,22.79,22.79,0,0,0-3.78-28.14q-7-7-16.12-7a23.41,23.41,0,0,0-16.8,7,21.86,21.86,0,0,0-3.78,28,27.2,27.2,0,0,0,9,9.12,21.61,21.61,0,0,0,11.57,3.45A20.76,20.76,0,0,0,673.67,280.23Z"/><path class="d" d="M739.07,189.47a28.3,28.3,0,0,1-10-9.45,23.23,23.23,0,0,1-3.89-12.9,22.7,22.7,0,0,1,8.11-17.8,28.58,28.58,0,0,1,19.47-7.11q10.68,0,17.24,6.45t6.56,17.12q0,11.81-7.12,19.47a23.29,23.29,0,0,1-17.79,7.67A25.27,25.27,0,0,1,739.07,189.47Zm-11.68,11.9h46.49v117.9H731Z"/><path class="d" d="M809.91,312.93A63.39,63.39,0,0,1,787.67,290a60.84,60.84,0,0,1-8.23-30.8,59.77,59.77,0,0,1,29.25-51.83,57,57,0,0,1,29.7-8A65,65,0,0,1,866.75,206a61.26,61.26,0,0,1,22.57,18Q898,235.4,898,248.53l-37.37,3.34a20,20,0,0,0-7.23-10.35,19.11,19.11,0,0,0-11.68-3.89,22.65,22.65,0,0,0-15.9,6.56q-7,6.57-7,15a20.29,20.29,0,0,0,3.34,10.9,26.47,26.47,0,0,0,8.78,8.67,21.23,21.23,0,0,0,11.24,3.34,20.12,20.12,0,0,0,11-3.34,18.91,18.91,0,0,0,7.45-8.45l36.92,3.56q0,12.24-8.34,23.24a63.57,63.57,0,0,1-49,24.36A57,57,0,0,1,809.91,312.93Z"/></svg>