<svg xmlns="http://www.w3.org/2000/svg" viewBox="0 0 248.6 81.4">
    <defs>
        <style>
            .a {
                fill: #fafafa;
            }
        </style>
    </defs>
    <path class="a"
        d="M14.6,85.7a28.54,28.54,0,0,1-10-10.3A27.35,27.35,0,0,1,.9,61.55a26.86,26.86,0,0,1,13.15-23.3,25.6,25.6,0,0,1,13.35-3.6,29.2,29.2,0,0,1,12.75,3,27.49,27.49,0,0,1,10.15,8.1,17.76,17.76,0,0,1,3.9,11l-16.8,1.5a9,9,0,0,0-3.25-4.65,8.57,8.57,0,0,0-5.25-1.75,10.16,10.16,0,0,0-7.15,2.95,9,9,0,0,0-3.15,6.75,9.14,9.14,0,0,0,1.5,4.9,12,12,0,0,0,3.95,3.9,9.55,9.55,0,0,0,5.05,1.5,9.07,9.07,0,0,0,4.95-1.5,8.53,8.53,0,0,0,3.35-3.8L54,68.15A17,17,0,0,1,50.25,78.6a27.33,27.33,0,0,1-9.75,8,27.21,27.21,0,0,1-12.3,3A25.58,25.58,0,0,1,14.6,85.7Z"
        transform="translate(-0.9 -8.25)" />
    <path class="a"
        d="M110.3,35.45v52.9h-19v-4.9A17.13,17.13,0,0,1,84.9,88a21.33,21.33,0,0,1-8.4,1.65q-10.31,0-15.5-6.85t-5-20l.3-27.5H74.8l-.1,26.5q0,4.2,2,6.45a8.33,8.33,0,0,0,12.3-1A13.72,13.72,0,0,0,91.4,59v.1l.1-23.6Z"
        transform="translate(-0.9 -8.25)" />
    <path class="a"
        d="M160.75,38.5a29.13,29.13,0,0,1,8.15,10.25,29.42,29.42,0,0,1,3.1,13.1,32.13,32.13,0,0,1-3,13.8,26,26,0,0,1-8.1,10.15,18.21,18.21,0,0,1-11,3.75,27.81,27.81,0,0,1-9.5-1.7,24.14,24.14,0,0,1-7.8-4.4v5.6H113.1V9.85l20-1.6-.2,31q6.79-5.1,17.3-4.8A17.51,17.51,0,0,1,160.75,38.5ZM148.65,71a11.63,11.63,0,0,0,3.9-4,10.3,10.3,0,0,0,1.45-5.2,10.18,10.18,0,0,0-3.15-7.45,10,10,0,0,0-7.25-3.15,10.5,10.5,0,0,0-7.55,3.15,9.83,9.83,0,0,0-1.7,12.6A12.13,12.13,0,0,0,138.4,71a9.74,9.74,0,0,0,5.2,1.55A9.38,9.38,0,0,0,148.65,71Z"
        transform="translate(-0.9 -8.25)" />
    <path class="a"
        d="M178.05,30.2a12.63,12.63,0,0,1-4.5-4.25,10.43,10.43,0,0,1-1.75-5.8,10.17,10.17,0,0,1,3.65-8A12.83,12.83,0,0,1,184.2,9a10.6,10.6,0,0,1,7.75,2.9,10.33,10.33,0,0,1,3,7.7,12.38,12.38,0,0,1-3.2,8.75,10.47,10.47,0,0,1-8,3.45A11.38,11.38,0,0,1,178.05,30.2Zm-5.25,5.35h20.9v53H174.4Z"
        transform="translate(-0.9 -8.25)" />
    <path class="a"
        d="M209.9,85.7a28.46,28.46,0,0,1-10-10.3,27.35,27.35,0,0,1-3.7-13.85,26.86,26.86,0,0,1,13.15-23.3,25.6,25.6,0,0,1,13.35-3.6,29.2,29.2,0,0,1,12.75,3,27.57,27.57,0,0,1,10.15,8.1,17.76,17.76,0,0,1,3.9,11l-16.8,1.5a9,9,0,0,0-3.25-4.65,8.57,8.57,0,0,0-5.25-1.75,10.16,10.16,0,0,0-7.15,2.95,9,9,0,0,0-3.15,6.75,9.14,9.14,0,0,0,1.5,4.9,11.88,11.88,0,0,0,3.95,3.9,9.55,9.55,0,0,0,5.05,1.5,9.07,9.07,0,0,0,4.95-1.5,8.59,8.59,0,0,0,3.35-3.8l16.6,1.6a17,17,0,0,1-3.75,10.45,28.61,28.61,0,0,1-22.05,11A25.58,25.58,0,0,1,209.9,85.7Z"
        transform="translate(-0.9 -8.25)" />
</svg>
